<?xml version="1.0" encoding="utf-8"?>
<!-- Generator: Adobe Illustrator 24.1.1, SVG Export Plug-In . SVG Version: 6.00 Build 0)  -->
<svg version="1.1" xmlns="http://www.w3.org/2000/svg" xmlns:xlink="http://www.w3.org/1999/xlink" x="0px" y="0px"
	 viewBox="0 0 623.1 144" style="enable-background:new 0 0 623.1 144;" xml:space="preserve">
<style type="text/css">
	.st0{fill:#fff;}
	.st1{fill:#BF331D;}
	.st2{fill:#111111;}
</style>
<g id="white">
	<g id="Capa_4">
		<g>
			<path class="st0" d="M159.1,23.4c-1.3,0-2.1-0.7-3.1-0.9c-1.3-0.3-2,1-3.2,0.9c-3.3-0.3-6.3,0.9-9.3,1.8
				c-5.5,1.7-11.1,3.5-16.3,6.1c-1.9,1-4.1,1.4-5.8,2.7c-0.4,0.3-1.3,0.1-1.2-0.3c0.4-1.7-1-3-0.9-4.7c0.4-4.9-1.1-9.5-2.3-14
				c-0.9-3.4-2.5-6.5-5.3-9c-2.6-2.3-6.4-2.1-8.7-1.4c-4.6,1.6-6.9,5.5-9,9.2c-3.7,6.5-5.8,13.6-7,20.9c-0.2,0.9-0.7,0.8-1.3,0.9
				c-1,0.1-1.4-0.9-2.3-1c-0.6-0.1-0.1-1.1-0.3-1.7c-0.3-1.1-0.4-2.5-1.1-3.4c-2-2.4-4.6-4.1-8-4c-2,0-3.5,1.1-4.9,2.2
				c-1.3,1-2.4,1.4-3.7,0.6c-1.4-0.9-3.3,0.4-4.6-1.1c-0.1-0.1-0.5,0-0.7,0c-3.2,0-6.4,0-9.6,0c-2,0-3,1.4-4.3,2.6
				c-1.2,1.1-0.9,2.7-1.6,4c-0.2,0.4,2,5.5,2.4,6.3c2.9,4.6,6.8,8.5,10.3,12.6c1.3,1.5,3.1,2.5,4.5,3.9c3.4,3.1,6.8,6.3,10.6,8.9
				c0.7,0.5,1,1.1,0.2,1.9c-0.7,0.6-1.4,1.2-1.1,2.2c1.4,1.1,3,0.7,4.6,0.8c0.1-1.2-1.3-0.4-1.5-1.2c0.9-0.6,2-0.6,2.8-0.2
				c2.2,1.4,4.5,2.8,6.3,4.7c0.4,0.4,0.3,1.2-0.6,1.3c0,0.3-0.1,0.6,0,0.8c2.4,3.6,3.2,7.6,3.1,11.8c0,1.8,0,3.6,0,5.4
				c0,2.5-1,4.2-3.3,5.2c-0.7,0.3-1.5,0.5-1.8,1c-0.5,0.7-2.2,0.1-1.7,1.5c0.2,0.6,1.2,1.1,2,1.3c1.1,0.2,2,0.3,3.1,0.9
				c3.3,1.8,4.1,5,4.7,8c0.4,2,1.1,4,1,6.2c-0.2,2.2,0,4.4,0,6.5c0.6,0,1.1,0.1,1.7,0.5c1.1,0.6,2.3,1.4,3.7,1.1
				c0-0.9-0.1-1.8,0-2.7c0.2-1.1-0.4-1.9-0.8-2.7c-0.5-0.1-1.2,0.3-1.6-0.6c-0.4-1.2-0.9-2.4-1.4-3.5c-0.2-0.5-0.2-0.9,0.2-1.3
				c0.6-0.6,1.2-1.1,1.4-2.1c0.1-0.5,0.9-0.2,1.3-0.3c0-2,0-4.1,0-6.1c0-1.6-1.3-3-0.8-4.7c-2.1,0-3.1-2.3-5.1-2.5
				c-0.1,0-0.3-0.4-0.3-0.6c0-1.8,0-3.6,0-5.4c0-0.6,0.5-0.8,0.8-1.2c1-1.1,2.3-1.8,3.8-1.9c0-1.5,0-3.1,0-4.6
				c-2-0.5-3.3,1.3-5.4,1.7c0-3,0-5.8,0-8.5c0-0.4,0.2-0.8,0.5-0.8s0.7,0.1,1,0.4c1.1,0.8,1.8,2.2,3.1,2.7c1.7,0.5,3-0.8,4.6-0.8
				c0.3-1.1-0.3-1.8-1.1-2.2c-2.4-1.5-4.6-3.3-6.7-5.2c-1.2-1.1-1.5-2.2-1.4-3.7c0.1-2.2,0.2-4.4,0-6.5c-0.1-1.6,0.4-2.7,1.6-3.6
				c3.9-2.9,7.7-5.8,12-8.2c0.9-0.5,1.2-0.6,2.2-0.1c2.3,1.3,4.5,2.8,6.6,4.4c0.6,0.4,1.1,0.9,1.8,1.2c2,1.1,2.7,2.9,1.8,5.1
				c-0.5,1-0.5,1.9-0.4,2.9c0,1.1-1.1,1.6-0.8,2.8c0.6,2.7-1,4.1-3.1,5.4c-2.8,1.8-5.6,3.6-7.9,5.9c-0.5,0.5-0.5,1.1-0.5,1.7
				c2.4,0.5,4.6-0.7,6.9-0.8c-0.3-1,0.3-1.7,1.1-2.2c0.6-0.3,1.5-0.5,2,0.3c0.4,0.6-0.3,1.1-0.7,1.5c-0.1,0.1,0,0.2,0,0.4
				c0.1,0.8,1.1,1.4,0.8,2.4c-0.1,0.5,0,1,0,1.5c0,2.2,0,4.3,0,6.5c0.1,2,1.2,3.8,0.8,5.8c0.6,0,1.1,0,1.7,0.5
				c1.3,1.1,2.9,1.2,4.5,1.1c0.5-1.7-0.8-3-0.8-4.6c-1.9,0-3-1.5-4.3-2.5c-0.9-0.7-0.6-2.3-0.1-3.5c1.1-2.9,1.6-6,2-9
				c0.4-2.7,1.4-4.9,3.6-6.5c0.2-0.2,0.7,0,1.1,0c0-0.4,0-0.7,0.5-0.6c0.1,0,0.2,0.4,0.3,0.6c0.9-0.1,1.2-0.8,1.7-1.3
				c2-2.2,4.3-3.7,7.3-4.2c0.1,0,0.2-0.4,0.3-0.6c-0.1-0.8,0.1-1.5,0.8-2c3.1-2.3,6.3-4.6,9.4-7.1c1.1-0.9,2.3-1.3,3.4-0.7
				c3.2,1.7,5.7,0.1,8.1-1.5c2.8-1.9,3.1-4.9,3-8c-1.4-1.4-0.4-2.4,0.7-3.3c0.9-0.8,1.6-1.6,2.5-2.4c2.2-2,3.7-4.5,4.9-7.2
				c0.5-1.1,1-2.2,1.2-3.4C163.5,26.8,160.8,23.4,159.1,23.4z M83.4,68.1c-0.3-0.1-0.7-0.1-0.9-0.3c-2.4-2.2-2.4-2.2,1-3.6
				c0.7,0.6,0.3,1.4,0.3,2.1C83.9,66.9,84.1,67.5,83.4,68.1z M85.2,44.8c-0.1,0.3-0.6,0.5-0.5,1c0.6,3.2-1.1,6.1-0.8,9.3
				c0.1,1.4-0.4,2.3-1.4,3.3c-5.8,5.3-5,5.4-11.1,0.1c-3-2.6-5.8-5.4-9-7.8c-1.8-1.3-3.7-2.9-4.8-5.3c-0.5-1.1-1.7-1.9-2.6-2.7
				c-2.1-2-3.3-4.5-4.7-6.9C49.9,35,50,34.3,50,33.6c0-1,0.6-1.6,1.6-1.7c1.1-0.1,2.3,0,3.7,0c3.4-0.4,6.7,1.4,10.3,1.6
				c0.6,0,1.3,0.7,1.3,1.6c0,0.7,0.3,1.1,0.6,1.7c2.2,4.6,4.5,5.9,9.3,5.1c0.9-0.2,1.8-0.7,2.5-1.2c2.1-1.4,3.4-1.4,5.2,0.1
				C86.1,41.8,85.5,43.4,85.2,44.8z M97,47.4c-0.2,0.5-0.7,1.1-1.2,1.4c-2.2,1-4.3,2.1-6.1,3.8c-0.2,0.2-0.8,0.2-1-0.2
				c-0.1-0.2-0.2-0.5-0.1-0.7c1.2-2.6,0.9-5.5,1.8-8.3c2.2,0.3,3.4,2.1,5.2,2.8C96,46.4,97.3,46.2,97,47.4z M113.5,51.7
				c-1.5-1.4-3.3-2.4-5-3.5c-1-0.7-1-1.4,0-2.1c1.8-1.3,3.8-2.3,6.3-3c0,2.8,0,5.3,0,7.8C114.7,51.9,114,52.1,113.5,51.7z
				 M114.6,37.7c-3,1.6-5.9,2.6-8.4,4.6c-0.9,0.7-2.1,1.1-3.1,1.7c-0.7,0.4-1.5,0.5-2.1-0.1c-1.9-1.8-4.4-2.5-6.6-3.5
				c-2.5-1.2-3.3-2.9-2.7-5.7c1.4-0.8,0.4-2.3,1-3.4c0.6-1,1.3-2.2,1.2-3.3c-0.1-1.4,0.5-2.5,1-3.5c2.2-4.7,3.4-9.9,7.4-13.5
				c0.4-0.3,0.7-0.8,1.1-1.1c1.6-1.3,3.4-1.5,4.9-0.2s2.8,2.7,3.5,4.7C114.4,21.9,115.2,29.7,114.6,37.7z M119,64.9
				c-0.5,0.4-0.9,1-1.6,0.7c-0.5-0.2-0.4-0.9-0.4-1.3s-0.1-0.8,0-1.1c0.2-0.9,1-0.5,1.5-0.6c0.7-0.1,0.8,0.4,0.8,0.9
				C119.3,64.1,119.4,64.6,119,64.9z M157.7,30c-1.6,2.2-3.2,4.3-4.9,6.4c-0.8,1-1.7,1.9-2.7,2.7c-1.2,1-2.1-0.8-3.4-0.5
				c-1.7,0.3-3.4,0.2-4.9,1.2c-2.2,1.3-4,3.9-3.8,6.4c0.2,3.1-0.9,4.8-3.6,6.7c-2.9,2-6,4-8.5,6.6c-1.1,1.2-2.7,1.1-3.9-0.1
				c-0.7-0.7-1.4-1.5-2.2-2.2c-1.2-0.9-1.6-2.1-1.1-3.4c1.2-3.4,0.6-7,0.7-10.5c0-2,0.7-3.1,2.6-4c5.8-2.7,11.4-5.9,17.6-7.7
				c2.3-1.9,5.6-1.3,8-3.1c2.5,0.5,4.8-1.6,6.8-0.8c1.1,0,1.6,0,2.1,0C157.8,28,158.4,29,157.7,30z"/>
			<path class="st0" d="M141,93.4c-0.2-1.2,0-2.5,0-3.8c-1,0.1-1.6,0-1.6-1.3c0.2-3.2-1-6-2.3-8.8c-0.4-1-1.1-1.6-2.3-1.4
				c-0.4,7.2,0.5,14.4,0.8,21.6c0.6,0,1.2,0.1,1.7-0.5c0.4-0.5,0.9-0.2,1.4-0.3c0-2.2,0-2.2,1.5-2.3C139.8,95.3,141.1,94.6,141,93.4
				z"/>
		</g>
	</g>
</g>
<g id="red">
	<g id="Capa_3_1_">
		<g>
			<path class="st1" d="M304.2,110c0.5-6-1.3-11.8-0.8-17.8c0.1-0.9,0.3-2-0.1-2.7c-1.1-1.8-0.8-3.7-0.6-5.5
				c0.2-2.1-0.8-3.9-0.9-5.8c-0.1-3.9,0.2-7.7-0.6-11.6c-0.7-3.4,0.1-7-0.9-10.4c-0.3-1.3-0.1-2.8-0.1-4.3c-1.3,0-2.6-0.3-3.6,0.1
				c-2.8,1.2-5.7,0.5-8.6,0.7c-0.6,0-1.3,0-1.9,0c-1.4,0.1-2.1,0.7-2.1,2c0.1,2.2-0.1,4.4,0.6,6.6c0.6,1.9,0.3,4.1,0.1,6.1
				c-0.2,2.1,1,3.8,0.9,5.8c-0.2,2.5-0.5,5.2,1.1,8.3c-1.8-1-1.6-2.2-2-3.1c-3.6-8-6.7-16.2-10.2-24.3c-2.7,0-5.4,0.2-8.1,0
				s-5,1.3-7.8,0.7c0.1,3.3,0.1,6.2,0.7,9.2c0.7,3.3,0.1,6.7,0.8,10.1c0.7,3.8-0.1,7.7,0.8,11.6c0.6,3,0.2,6.2,0.8,9.3
				c0.7,3.8-0.4,7.8,0.9,11.6c-0.5,5.4,1.2,10.8,0.8,16.2c-0.2,2.7,0.4,3.3,3.1,2.8c3.6-0.7,7.2-0.6,10.9-0.7c1.6,0,2.1-0.7,2.2-2.3
				c0-0.5,0-1,0-1.5c0.4-5.4-1.3-10.8-0.8-16.2c0-0.4,0.1-0.8-0.1-1.1c-1.4-2.1-0.4-4.3-0.4-6.5c1.4,3.3,2.6,6.7,3.9,10
				c1.9,5.1,3.9,10.2,5.8,15.3c0.3,0.8,0.6,0.9,1.3,0.9c5.2-0.2,10.6,0.7,15.8-1.2C304.6,118.2,305.8,114,304.2,110z"/>
			<path class="st1" d="M204.5,93.4c-0.8-1.5-2.4-0.2-3.4-1.1c0.6-1.2,1.9-1.4,2.9-2c2.1-1.2,3.9-2.9,3.9-5.4
				c0-4.1,0.6-8.3-0.7-12.4c-0.5-1.6-0.9-3.2-1.6-4.7c-0.6-1.4-1.4-3.6-2.9-3.5c-2.6,0-2.2-2.5-3.7-3.2c-0.1,0-0.3,0-0.4,0
				c-1.5,0-2.7-0.9-4.3-0.8c-6.6,0.5-13.2-0.6-19.7,0.8c-2.2,0.5-4.6,0-6.9,0.1c-2.3,0.1-2.8,0.9-3,3.1c-0.3,2.7,1.1,5.1,0.9,7.8
				c-0.2,2.6-0.3,5.2,0.6,7.8c0.6,1.9,0.3,4.1,0.1,6.1c-0.2,2.2,1,4,0.9,6.2c-0.1,3.1-0.4,6.2,0.6,9.3c0.6,2.1-0.1,4.6,0.2,6.9
				c0.3,2.2,1,4.3,0.7,6.6c-0.6,5.3,1.2,10.5,0.8,15.9c-0.1,1.2,0.7,1.6,1.8,1.9c1.7,0.4,3.1-0.8,4.7-0.8c3.4-0.1,6.7,0.1,10.1-0.6
				c3.5-0.7,7.2-0.1,10.8-0.9c2-0.4,4.1-0.3,6.2-0.8c5.2-1.1,8.3-5.1,8.6-10.2c0.2-2.8-0.2-5.7,0.1-8.5c0.3-2.9-0.5-5.7-1-8.5
				C210.2,98.8,209.3,94.6,204.5,93.4z M186,88.8c-0.5-0.3-1.1-0.7-1.1-1.4c0-0.3,0-0.5,0-0.8c-0.2-3.6,0.5-7.2-0.7-10.8
				c-0.3-0.9,0-2,0-3c0.6-0.1,0.9-0.1,1.3-0.1c1.3,0.1,2.7-0.4,3.9,0.9c1.2,1.4,1.6,3,1.7,4.6c0.2,2,0.1,4.1,0,6.1
				c0,2.5-0.5,3-3.1,3.8c-0.2,0.1-0.5,0.1-0.6,0.3C186.9,88.8,186.4,89.1,186,88.8z M193.3,108.1c-0.2,2-0.1,4.1,0,6.1
				c0.1,1.4-0.4,2.3-1.3,3.3c-1,1-1.9,1.6-3.3,1.3c-0.4-0.1-0.8,0-1.7,0c0.9-6.2-1.1-12-0.6-17.9c0-0.6,0-1.2,0-1.8
				c1.8-1.1,3.2,0.3,4.7,0.5c1,0.1,1.5,1.6,1.4,2.6C192.3,104.3,193.6,106.1,193.3,108.1z"/>
			<path class="st1" d="M353.6,112.6c-0.4-2.1-0.3-4.4,0-6.5c0.3-2.2-1.1-4.1-0.9-6.2c0.6-5.6-1.3-11-0.8-16.6c0.1-1.3-0.7-2-2-2.1
				c-2.3-0.2-4.5,0.7-6.6,0.7c-4.5-0.1-9,0.8-13.5,1c-0.9,3.7,1.1,7.1,0.6,10.8c1.4,0,2.6,0,3.8,0c0,2.4-0.5,4.9,0.2,6.9
				c0.6,1.8,0.4,3.4,0.6,5.1c0.2,1.4-0.7,2.3-1.3,3.3c-0.9,1.3-4,0.8-4-0.6c0-1.6-0.9-2.8-0.9-4.3c0-3,0.4-6-0.7-8.9
				c0.5-5.6-1.2-11-0.8-16.6c0.1-0.8,0.3-1.7,0-2.3c-1.4-2.1-0.5-4.4-0.7-6.6c-0.2-2.3-0.1-4.6,0-6.9c0.1-1.2,1-1.6,2.1-1.6
				c1.5,0,2.4,0.5,2.4,1.7c0,3.4,1.2,6.6,0.9,10.1c-0.2,2.5,0.3,2.7,2.7,2.9c5.4,0.4,10.8-0.6,16.5-0.9c0-1.1,0.1-2.1,0-2.9
				c-0.3-1.7-1-3.3-0.8-5.1c0.2-1.7-1.3-3.2-0.7-5.1c-1.6-3.5-2.6-7.4-6.6-9.1c-2.3-2.8-5.9-2.4-8.8-3.8c-3.9,0.4-7.7-0.2-11.6,0.6
				c-5,1-8.6,3.5-11.7,7c-1.9,2.2-3.1,4.9-2.9,8c0.5,6.3-0.8,12.7,0.8,18.9c-0.6,4.9,1,9.8,0.7,14.7c-0.2,3.2,1.3,6.1,0.8,9.3
				c1,1.1,0.5,2.6,1.1,3.8c2.8,5.3,4.1,8,11.2,10.4c2.3,0.8,4.8,1.9,7.2,1.1c1.6-0.6,3.3-0.7,4.8-1.3c1.9-0.8,2.8-2.5,4.3-3.6
				c0.2-0.2,0.4-0.4,0.5-0.5c0.9-0.9,1.3-0.9,1.7,0.5c0.4,1.3,1.2,2.4,3.2,2.1c2.3-0.3,4.6-0.1,6.9-0.1c2.7,0,2.9-0.3,2.9-3.1
				C354.3,115.1,353.8,113.9,353.6,112.6z"/>
			<path class="st1" d="M260,118.2c-1.2-2.7-1.5-5.6-1.9-8.4c-0.5-2.9-1.6-5.5-2-8.5c-0.4-3.1-1.3-6.1-2-9.1
				c-0.7-2.9-1.4-5.8-1.9-8.8c-0.5-2.9-1.9-5.5-1.9-8.4c0-1.1-0.9-1.7-0.9-2.8c0-0.9-0.3-1.9-0.4-2.9c-0.7-3.9-2.4-7.6-2.6-11.6
				c-0.1-1.5-0.9-2-2.5-2c-1.1-0.1-1.6,1-2.8,0.9c-5.9-0.6-11.8,1.2-17.8,0.7c-0.9-0.1-1.8-0.1-2.7,0c-1,0.1-2,1.4-2,2.5
				c-0.1,3.2,0.1,6.5-0.7,9.7c-0.6,2.3-0.3,4.9-0.1,7.3c0.2,2.6-0.9,4.8-0.9,7.4c0,3.7,0.8,7.6-0.7,11.2c0.6,5.6-1,11-0.8,16.6
				c0.1,2.3,0.6,4.8-0.1,6.9c-1.2,3.6-0.3,7.2-0.7,11.3c2.3-1.8,4.5-1.2,6.5-1.3s3.9,0,5.9-0.6s4.3-0.1,6.9-0.1c0-3,0.1-5.6,0-8.3
				c-0.2-5.3,0.3-4.7,4.8-4.8c1.2,0,1.2,0.6,1.5,1.5c0.4,1.2,0.9,2.3,0.6,3.6c-0.4,1.5,1,2.4,0.9,3.9c-0.1,3.2,1.2,4.4,4.1,3.2
				c1.4-0.6,2.7-0.5,4-0.6c2.6-0.1,5.1,0,7.7,0c1.1,0,2-0.7,3.1-1c0.9-0.2,0.6-2.2,0.3-2.7C259.9,121.4,260.7,119.7,260,118.2z
				 M237.6,102.1c-0.7,0.1-1.5,0.6-2.4,0.6c-2.1,0-3.3-1.1-2.5-3c0.9-2.1,0.5-4.2,0.7-6.2c0.1-1.3,0-2.6,0-3.8c0-2.3,0-4.6,0-6.9
				c0-0.7-0.4-1.8,0.2-2.1c1.2-0.5-0.5-2.9,1.5-2.4c1.2,0.3,0.5,1.7,0.5,2.6c0.1,2.3,0.8,4.5,1.4,6.7c0.1,0.3,0.2,0.7,0.2,1.1
				c-0.3,3.9,1.7,7.4,1.6,11.2C240.3,101.6,239.4,101.8,237.6,102.1z"/>
		</g>
	</g>
</g>
<g id="black">
	<path class="st2" d="M444.5,98.4c-0.8-3.3-0.1-6.9-0.8-10.4c-0.7-3.8,0.1-7.7-0.8-11.6c-0.7-3.1-0.1-6.4-0.7-9.7
		c-0.7-3.6-0.4-7.5-0.7-11.2c-0.4-4.5-0.5-9-1.2-13.6c-0.4,0-0.9,0-1.4,0c-5.2-0.5-10.3,1.2-15.5,0.8c-1.5-0.1-2,0.7-2.2,2.3
		c-0.1,1.5,0.8,2.9,0.7,4.3c-0.4,5.6,1.1,11.1,0.9,16.6c-0.1,1.4-0.2,2.1-2,2.3c-2,0.2-2.6,0.3-2.7-1.2c-0.1-2.1-0.2-4.1,0-6.1
		c0.3-2.1-0.9-3.8-0.9-5.8c0.1-3.9,0.4-7.8-1.1-11.5c-1.8,0-3.8-0.6-5.3,0.1c-1.9,0.9-3.7,0.4-5.5,0.6c-1.8,0.2-3.6,0-5.4,0
		c-0.1,0-0.3,0-0.4,0c-1.9,0.3-2.5,1.3-1.8,3.1c0.1,0.4,0.3,0.7,0.3,1c0,2.1,0.2,4.1-0.1,6.2c-0.3,2.1,0.8,3.8,0.9,5.8
		c0.1,3.5-0.7,7.1,0.7,10.5c-0.6,4.6,0.9,9,0.8,13.5c0,2.6-0.3,5.2,0.6,7.8c0.6,1.6,0.3,3.6,0.1,5.3c-0.3,1.9,0.9,3.6,0.9,5.5
		c-0.1,4.2-0.4,8.5,1,12.9c2.1-0.1,4.3-0.1,6.5-0.7c1.9-0.5,4.1-0.2,6.1-0.1c2.1,0.1,4-1.4,6.4-0.6c0-0.9,0.2-1.7,0-2.2
		c-1-1.9-0.8-3.9-0.7-5.9c0.4-5.2-1.3-10.3-0.8-15.5c0-0.3,0.1-0.6,0-0.8c-1.4-1.5-0.6-3.3-0.8-5.1c1.6,0,2.9,0,4.6,0
		c0,1.5,0.2,2.9-0.1,4.1c-0.3,1.4,1,2.2,0.9,3.5c-0.5,6.2,1.3,12.3,0.7,18.5c0,0.1,0,0.3,0,0.4c0.1,2.3,1.4,3.5,3.4,2.5
		c1.3-0.6,2.4-0.7,3.6-0.6c4.2,0.4,8.1-1.1,12.4-0.8C444.7,107.8,445.7,103.1,444.5,98.4z"/>
	<path class="st2" d="M578.4,99c0.6-5.2-0.9-10.3-0.8-15.5c0.1-2.9-1.3-5.6-0.8-8.5c0.1-0.5-0.3-0.6-0.5-1c-1.5-3.7-3.9-6.4-8-7.1
		c0.7-1,1.9-0.9,2.6-1.3c2.5-1.7,4.3-4,4.4-7.3c0.1-5-0.1-9.9-1.5-14.8c-1-3.4-2.8-5.9-5.8-8c-2.2-1.6-4.8-0.7-6.9-2
		c-0.5-0.3-1.3,0-1.9-0.2c-1.7-0.4-3.1,0.8-4.7,0.7c-6.1-0.3-12.1,0.5-18.1,0.8c-1.1,0.1-2.2,0-3.6,0c0.6,4.3-0.3,8.4,0.7,12.6
		c0.9,3.7,0,7.7,0.8,11.6c0.6,3.1,0.1,6.4,0.8,9.7c0.7,3.5,0,7.2,0.8,10.8c0.7,3.5-0.4,7.3,0.9,10.8c-0.5,5.1,0.8,10,0.8,15.3
		c5.4,0.4,10.5-1.3,15.7-0.7c0.1,0,0.3,0,0.4,0c1.3-0.2,2.2-1.3,2.3-2.6c0.3-5.7-1.3-11.3-0.8-17c0-0.3,0.1-0.6,0-0.8
		c-1.5-1.7-0.6-3.6-0.7-5.5c-0.2-1.9,0-3.8,0-5.8c0-0.5,0.2-0.7,0.6-0.8c1.4-0.3,3.9,1.2,4,2.5c0.1,1.6,0.2,3.1,0.7,4.7
		s0.3,3.6,0.1,5.3c-0.3,1.8,1,3.3,0.8,5.1c-0.5,4.7,0.5,9.2,1,13.9c0.8,0,1.6,0.2,2.3,0c2.9-1.2,5.9-0.6,8.9-0.7c0.5,0,1,0.1,1.5,0
		c1.5-0.3,3.3-0.3,4.5-1.1C580.2,101.5,578.3,100.2,578.4,99z M558.4,58.6c-0.2,0.9-0.8,1.7-1.2,2.5c-1.3-0.5-2.2,1.1-3.5,0.8
		c-0.7-0.2-0.7-0.6-0.6-1.1c0.2-1.6-1.1-2.9-0.8-4.7c0.3-1.6,0.1-3.3,0-5c-0.1-1.2,0.4-2.4-0.7-3.6c-0.6-0.7,0.5-1.6,1.3-1.8
		c1.8-0.5,4.5,1,4.6,2.9c0.1,1.3,0.6,2.3,0.8,3.5c0.2,1,0,2,0,3.1C558.4,56.3,558.6,57.5,558.4,58.6z"/>
	<path class="st2" d="M529.4,78.3c-0.6-4.4-0.5-9-1.1-12.6c0.5-5-1.3-8.9-0.7-12.9c-1.4-1.4-0.5-3.3-1.1-4.9c-1.5-4-4.5-6.8-7.4-9.6
		c-0.5-0.5-1.3-0.8-1.9-1c-2.4-0.7-4.9-1.4-7.4-1.6c-3.2-0.2-6.4-0.2-9.7,0.6c-4.8,1.3-9,3.3-11.8,7.5c-1.8,2.7-3.2,5.7-3,9.1
		c0.4,5.5-0.6,11.1,0.7,16.6c0.7,3.1,0,6.4,0.7,9.7c0.7,3.4-0.1,7,0.8,10.4c0.5,1.9,0.3,3.9,0.8,5.8c1.1,4.9,4,8.3,8,11
		c3.6,2.4,10.6,3.3,13.3,3.1c1.1-0.1,1.9-1.1,3.1-0.8c1.6,0.4,3.2-0.2,4.7-0.8c3.6-1.3,7-3.3,9.2-6.4c2.1-3.1,3.6-6.6,3.3-10.5
		C529.6,86.9,530,82.6,529.4,78.3z M511.4,95c0.1,1.2-0.4,2.1-1.4,2.3c-1.1,0.2-2.4,0.4-3-1c-0.4-0.7-1-1.6-0.9-2.3
		c0.4-3.4-1.1-6.6-0.9-10.1c0.3-5.1-1.3-10.2-0.7-15.4c-1.4-3.1-0.2-6.5-0.9-9.6c-0.5-2.6-0.7-5.2-0.7-7.8c0-2,1.9-3.4,3.8-3.1
		c0.8,0.1,1.4,0.7,1.4,1.1c0,1.2,1,2.1,0.9,3.1c-0.5,4.3,1.4,8.4,0.8,12.2c0,2.3-0.5,4.2,0.1,5.5c0.8,1.5,0.5,2.9,0.6,4.4
		c0.1,1.7-0.3,3.4,0.1,5C512.1,84.4,511,89.7,511.4,95z"/>
	<path class="st2" d="M84.5,102.7c-1.1-0.6-2.1-0.6-3.1-0.9c-0.7-0.2-1.8-0.7-2-1.3c-0.5-1.4,1.2-0.7,1.7-1.5c0.3-0.5,1.2-0.8,1.8-1
		c2.3-1,3.4-2.7,3.3-5.2c0-1.8,0-3.6,0-5.4c0.1-4.2-0.7-8.2-3.1-11.8c-0.1-0.2,0-0.5,0-0.8c-2.2-1.6-4.8-2.9-6.9-4.6
		c-1.6-0.1-3.2,0.4-4.6-0.8c-9,0.5-18,0.6-27,1.7c0.4,3.6-0.1,6.9,0.7,10.3c0.8,3.5,0.2,7.2,0.8,10.8c0.6,3.3,0,6.7,0.7,10.1
		c0.7,3.6,0.1,7.5,0.8,11.2c0.7,3.4,0.3,7,0.7,10.5c0.5,4.5,0.6,9,0.9,13.5c0.2,2.5,1.2,3.5,3.6,2.5c0.9-0.4,1.6-0.4,2.5-0.5
		c3.2-0.3,6.5,0.4,9.7-0.7c1.5-0.5,3.3-0.3,5,0c1.8,0.3,3.3-0.9,5.1-0.8c2.4,0.2,4.7-0.2,7-0.8c4.4-1,8.2-4.9,8-9.6
		c-0.1-1.4,0-2.8,0-4.2c0-2.2-0.1-4.4,0-6.5c0.1-2.2-0.6-4.2-1-6.2C88.6,107.7,87.8,104.5,84.5,102.7z M63.9,94.8
		c0-1.9-0.2-3.8,0-5.7c0.1-1.4-0.5-2.6-0.7-3.9c1.8-1-0.6-2.1,0.1-3.3c0.3,0,0.7-0.2,1-0.1c1.3,0.2,2.7-0.5,3.9,0.8
		c1.2,1.4,1.7,2.9,1.8,4.6c0.1,2.2,0.1,4.3,0,6.5c0,1.5-1.6,3.2-2.9,3.5C65.1,97.7,63.9,96.9,63.9,94.8z M72.3,123.3
		c-0.3,2.2-1.4,3.2-3.6,3.3c-0.8,0-1.5,0-2.5,0c0-1.2,0-2.3,0-3.4c0.2-5.2-1.5-10.2-0.6-15.7c4.3-0.1,6.1,1.4,5.9,5.4
		c-0.1,2.9,1.2,5.6,0.8,8.5C72.3,122,72.4,122.7,72.3,123.3z"/>
	<path class="st2" d="M160.9,115.8c0-0.5,0-1,0-1.5c-0.7,0-0.8-0.4-0.8-0.9c0-0.7,0-1.5,0-2.2c0-2.3,0-4.6,0-6.9
		c-0.7,0.1-0.8-0.4-0.8-1c0-0.4,0.3-0.7,0.8-0.6c0.1-2.2-1.2-4.1-0.8-6.4c0.1-0.8-0.9-0.4-1.5-0.5c-0.8,0-1.5,0-2.3,0
		c-2.8,0-5.6,0-8.5,0c-0.4,1.5-1.6,0.5-2.3,0.8c-1.5,0-3.1,0-4.6,0c-1.5,0.1-1.5,0.1-1.5,2.3c-0.5,2.5,1.7,4.8,0.6,7.1
		c0.7,0.8,1.4,0.5,2,0.5c1.4,0.1,2.1,0.7,2,2.1c0,1.8-0.1,3.6,0,5.4c0,1,0,1.8,0.5,2.9c0.9,1.7-0.4,3.6-1.1,5.1
		c-1.2,2.4-3.9,2-4.7-0.7c-0.4-1.3-1.1-2.7-0.9-4.3c0.5-4.6-1.3-9.2-0.7-13.9c0.1-1.2-1.2-2.2-0.8-3.5c-0.3-7.2-1.2-14.4-0.8-21.6
		c-0.1-0.8,0.6-1.4,0.7-2c0.2-1.1,0.7-1.1,1.5-1.1c1.7,0,3.3,1.2,3.2,2.8c-0.2,4,1.3,7.8,0.8,11.8c1,0,2.1-0.1,3.1,0
		c4.6,0.5,9-1,13.5-0.8c1.4,0.1,2.4-1.3,1.8-2.5c-0.4-0.8-0.7-1.5-0.7-2.4c0.1-1.2-0.1-2.3,0-3.5c0.2-1.3-0.7-2.3-0.9-3.5
		c-1-5.3-4.1-9.4-8.9-11.9c-2.9-1.5-6.2-2-9.4-2.3c-3.5-0.4-6.8,0.9-10.1,1.5c-0.1,0.2-0.1,0.6-0.3,0.6c-3,0.5-5.3,2-7.3,4.2
		c-0.5,0.5-0.8,1.3-1.7,1.3c-0.3,0-0.5,0-0.8,0c0.4,1.3-0.3,2.5-0.9,3.4c-1.1,1.9-1.5,3.8-1.4,5.9c0,4.1,0,8.1,0,12.2
		c0,1.6,1.3,2.9,0.8,4.6c0.3,3.7-0.5,7.5,0.7,11.2c0.5,1.8,0.2,3.8,0.1,5.7c-0.1,1.9,0.9,3.5,0.9,5.4c-0.1,5.2,2.6,9.3,6.3,12.7
		c1.6,1.5,4.1,1.9,6,3.1c1.3,0.8,3-0.4,4.2,1c0.8,0.8,1.3-0.9,2.3-0.7c1.1,0.2,2.3,0.4,3.3-0.2c2.5-1.3,5-2.6,6.3-5.3
		c0.2-0.4,0.3-0.6,0.8-0.6s0.7,0.2,0.7,0.6c0.1,0.5,0,1.1,0.2,1.4c0.6,1,1,1.9,2.6,1.9c3.2,0,6.3-1.3,9.5-1c0-2.2,0-4.1,0-6.1
		c-1.1-0.8-1.1-1.5,0-2.3c0.4-1.3-0.8-2.3-0.8-3.5C160.9,118.6,160.9,117.2,160.9,115.8z"/>
	<path class="st2" d="M483.7,96.7c0.1-1-0.6-1.6-1.6-1.7c-0.8-0.1-1.6-0.3-2.3,0c-3.3,1.4-6.6,0.5-10.2,0.6c1.1-5-1-9.5-0.4-14.8
		c3.4,0.9,6.4-0.2,9.5-0.5c1.5-0.2,2.6-1.4,1.9-2.5c-1-1.5-0.6-2.9-0.7-4.4c-0.1-1.7-0.1-3.3,0-5c0-1.1-0.6-1.8-1.4-1.9
		c-1.5-0.2-3.2-0.4-4.5,0.2c-1.5,0.7-3,0.4-4.4,0.5c-1.3,0.1-2-0.7-2-2.1c0-3-0.1-5.9,0-8.9c0-1.5,0.7-2.1,2.4-2.1
		c2.3,0,4.6,0,6.9,0c1.6,0,2-0.6,2.2-2.3c0.5-4.2-1.3-8.1-0.8-12.4c-4.4,0.5-8.7-0.7-12.7,0.9c-4.8-0.5-9.5,0.6-14.3,0.8
		c-1.2,0-2.5,0-3.8,0c0,2.2,0,4.1,0,6c0,2,0.1,3.9,0.7,5.9c0.5,1.8,0.3,3.9,0,5.7c-0.3,2,0.9,3.6,0.9,5.5c0,3.5-0.2,7,0.6,10.5
		c0.7,3.5,0.2,7.2,0.8,10.8c0.6,3.5-0.1,7.2,0.7,10.9c0.7,3.4-0.1,7,0.8,10.5c0.4,1.5,0.1,3.3,0.1,5.1c1.6,0,2.9,0,4.3,0
		c1.5,0,2.9-0.5,4.3-0.6c3.7-0.4,7.5-0.3,11.2-0.8c4.1-0.6,8.3,0.2,12.3-1.1c0.1-0.1,0.2-0.2,0.2-0.3
		C484.6,105,483.2,100.9,483.7,96.7z"/>
	<path class="st2" d="M619,28.8c-2.8-0.5-5.3,1.2-8.1,0.8c-2.9-0.5-5.7,0.3-8.5,1c0,1,0.4,2.3-0.1,2.9c-1,1.4-0.8,2.9-0.6,4.3
		c0.2,1.6-1.1,2.8-0.8,4.3c0.5,3.3-1.2,6.4-0.8,9.7c0.1,0.5-0.2,0.7-0.6,0.8c-0.6,0.1-1.1-0.2-0.9-0.8c0.4-1.8-0.3-3.6-1-5
		c-0.8-1.8,0.2-3.8-1.3-5.2c-0.3-3.6-1.7-7-2.7-10.3c-5.5-0.9-10.8,0.9-16.6,0.6c0,1.2-0.2,2.1,0.3,3.2c1.3,3.1,2.4,6.2,3.4,9.4
		c1.3,4,2.7,7.9,4.2,11.8c2,5.1,3.7,10.3,5.7,15.3c0.6,1.5,1.8,3,1.7,4.6c-0.3,3.8,1.2,7.4,0.9,11.2c-0.4,4.3,1.3,8.5,0.8,12.8
		c-0.1,1.4,1.5,2.5,2.5,1.8c1.1-0.8,2.1-0.6,3.2-0.7c4-0.1,8,0.3,11.9-1.1c-0.1-2.3,0.4-4.7-0.8-6.9c0.5-5.3-0.8-10.5-0.8-15.8
		c0-3.4,0.8-6.5,1.4-9.8c0.6-2.8,1.9-5.6,1.7-8.6c1.6-1.4-0.1-3.8,1.5-5.1c0-2.4,1.3-4.5,1.4-6.7c0.1-1.8,1.1-3.3,0.9-5.1
		c1.6-1.4-0.1-3.8,1.5-5.1C618,34.1,620.2,31.6,619,28.8z"/>
	<path class="st2" d="M391.7,45c-0.5,0.2-0.9,0.8-1.6,0.8c-3.2,0-6.5,0-9.7,0.6c-3.8,0.7-7.8-0.4-11.6,0.9c-4.8-0.5-9.5,1-14.5,0.8
		c0,4.3,0,8.5,0,12.7c0,1.1,0.6,1.8,1.5,1.8c1.7,0.2,3.6,0.6,4.9-0.1c1.8-0.9,3.3-0.4,5-0.7c0.5,3.4-0.3,6.5,0.8,9.6
		c0.6,1.7,0.3,3.8,0,5.7c-0.3,2,0.9,3.6,0.9,5.5c0,3.2-0.7,6.6,0.7,9.7c-0.5,5.1,1,10,0.7,15.1c-0.2,3.7,1.2,7.1,0.9,10.5
		c3.3,0.7,6.1-1.1,9.2-0.7s6.2,0,9-1c0.9-5.1-0.6-10.1-0.6-15.1c0-2.3,0.2-4.6-0.6-7c-0.6-1.8-0.3-4.1-0.1-6.1
		c0.2-2.2-1.1-4.1-0.8-6.2c0.6-5.4-1.2-10.8-0.8-16.2c0-0.4,0.1-0.9-0.2-1.1c-1.2-1.2-0.3-2.6-0.7-4.1c0.8,0,1.3,0,1.8,0
		c2.1,0,4.1,0.1,6.2,0c2.2-0.1,2.8-0.9,3-3.1c0.4-3.6-1-6.9-0.8-10.5C394.4,45.4,393,44.5,391.7,45z"/>
	<path class="st2" d="M113.2,112.8c0.1-0.9,0.4-2.1-0.1-2.6c-1.2-1.7-0.7-3.4-0.6-5.1c0.1-1.8-1.2-3.2-0.9-5.1
		c0.3-1.6,0.1-3.3,0.1-5c0.5-2-0.7-3.8-0.8-5.8c-0.1-2.2,0-4.3,0-6.5c0-0.5-0.1-1.1,0-1.5c0.3-1-0.7-1.5-0.8-2.4c-0.8,0-1.5,0-2.3,0
		c-2.3,0.1-4.5,1.3-6.9,0.8c-1.3,0-2.6,0-3.9,0c-1.6,0-2.9,1.3-4.6,0.8c0,1.6,1.3,2.9,0.8,4.6c0,1.5,0,3.1,0,4.6
		c-0.2,2,1.1,3.7,0.8,5.8c-0.3,1.9-0.1,3.8-0.1,5.7c-0.5,1.7,0.8,3.1,0.8,4.7c0,2,0,4.1,0,6.1c0,2.6,0,5.1,0,7.7
		c0.4,0.9,1,1.6,0.8,2.7c-0.2,0.9,0,1.8,0,2.7c1.1,0,0.7,0.8,0.8,1.4c0,1.7,0,3.3,0,5s-0.2,3.5,0.2,5.2c0.9,0,1.5-0.1,2.1,0
		c4.8,0.6,9.5-1,14.3-0.8c1.2,0.1,1.8-0.7,1.9-1.8c0.1-1.6,0.2-3.2-0.7-4.7C114.5,123.8,112.8,118.3,113.2,112.8z"/>
	<path class="st2" d="M20.5,123.5c2.2,0.3,4.1-1.1,6.2-0.9c5.1,0.6,10-1.2,15.1-0.7c0.1,0,0.3,0,0.4,0c1.2-0.2,1.7-1.1,1.1-2.3
		c-0.4-0.8-0.2-1.5-0.3-2.2c-0.1-1.8,0-3.5,0-5.5c-0.7,0-1.2,0-1.7,0c-6-0.5-11.8,1.3-17.8,0.8c-0.4,0-0.9-0.1-1.1,0.1
		c-1.2,1.2-2.7,0.4-4,0.6c-1,0.2-0.9-0.6-0.9-1.2c-0.1-0.8,0.3-1.1,1.1-1.1c2.1,0,4.1-0.1,6.3-0.6s4.6-0.3,6.9-0.1
		c2.4,0.3,4.6-1.3,7-0.9c1.1,0.2,2.2,0,3.3,0c0-3.5,0-6.7,0-10c-1.6,0-3.1,0-4.6,0c-1.6,0-3.1,0.2-4.7,0.6c-1.8,0.5-3.8,0.2-5.7,0.1
		c-2-0.2-3.8,1.3-5.9,0.8c-1.2-0.2-2.6-0.1-3.8,0c-3.5,0.1-6.6,3.4-6.7,7c0,2.1,1.2,3.8,1.6,6.1c-2.4,0-4.6,0-7,0c0,2.8,0,5.4,0,7.9
		c0,1.4,0.7,2.1,2,2.1c2.2,0,4.4,0,6.6-0.6C16.1,123,18.4,123.3,20.5,123.5z"/>
	<path class="st2" d="M18.8,98.9c4.2,0,8.2-1.4,12.4-0.9c2,0.2,3.8-0.6,5.5-1.5c2-1.1,3.3-2.5,4.2-4.8c0.8-2.2,0.3-4.2,0.6-6.3
		c0.3-2.6-1-4.7-2.7-6.6c-2.5-2.8-5.9-3.3-9.4-3.1c-1.9,0.1-2.3,0.6-2.5,2.4c-0.3,2.7,1.2,5,0.9,7.6c2.5,0,4.7,0,6.8,0
		c0.5,0,0.7,0.2,0.8,0.6s-0.1,1-0.4,0.9c-1.1-0.1-1.6,1-2.8,0.9c-1.9-0.2-3.8-0.1-6.1-0.1c0-2.9,0.1-5.4,0-8
		c-0.1-1.2-0.4-2.4-1.1-3.4c-0.3-0.4-1.7-0.2-2.5-0.2c-1.7,0-3.4,0.3-5.1,0.6c-3.2,0.6-5.1,2.5-6.7,5.1c-2.4,3.8-1.8,7.5-0.3,11.2
		C11.9,97,14.8,98.8,18.8,98.9z M16,86.6c1.6-0.1,3.3-0.1,4.9,0c0.7,0,0.6,0.6,0.6,1.1c0,1.2-0.7,1.7-1.8,1.9c-0.6,0.1-1.3,0-1.9,0
		s-1.3,0.1-1.9,0c-0.7-0.2-1.4-0.7-1.4-1.5C14.6,87.2,15.3,86.6,16,86.6z"/>
	<path class="st2" d="M39.8,122.7c-0.9-0.1-1.2,0.3-1.4,1.2c-0.4,1.2-1.1,2.5-2.9,1.9c-1-0.4-1.5,0.7-2.4,0.8c-2.1,0-4.1,0.2-6.2,0
		c-2.2-0.2-4.1,1.1-6.2,0.9c-1.1-0.1-1.6-0.3-1.5-1.5c0.1-0.7-0.3-0.9-0.9-0.9c-1,0-2.1,0-3.1,0c-1.4,0-2.2,0.6-2.2,2
		c0,0.8-0.2,1.2-1.1,1.1c-0.9,0-1.7,0-2.8,0c0,2.8-0.1,5.5,0,8.2c0,1.1,0.7,1.8,1.9,1.8c0.9,0,1.9-0.4,2.5,0.3
		c0.9,1.1,2,1.3,3.4,1.3c1.5-0.1,2.8,0,3-2c0-0.1,0.4-0.4,0.6-0.3c1.6,0.5,2.8-1,4.3-0.8c4.8,0.6,9.5-0.8,14.3-0.8
		c2.7,0,4.6-2,4.6-4.6c0.1-2.8,0-5.6,0-8.5C42.3,122.7,41,122.8,39.8,122.7z"/>
	<path class="st2" d="M97.9,74.3c3,0,5.5-0.9,7.9-2.4c3.5-2.3,5.7-8.5,4.1-12.2c-1.4-3.2-3.9-5.4-8.7-4.7c-0.9,0.3-2.2-0.2-3.6,0.4
		c-3.8,1.6-6.1,4.3-7.2,8.1C89.1,67.6,91.8,74.2,97.9,74.3z"/>
</g>
</svg>
