<?xml version="1.0" encoding="utf-8"?>
<!-- Generator: Adobe Illustrator 24.1.1, SVG Export Plug-In . SVG Version: 6.00 Build 0)  -->
<svg version="1.1" xmlns="http://www.w3.org/2000/svg" xmlns:xlink="http://www.w3.org/1999/xlink" x="0px" y="0px"
	 viewBox="0 0 448 448" style="enable-background:new 0 0 448 448;" xml:space="preserve">
<style type="text/css">
	.st0{display:none;}
	.st1{display:inline;}
	.st2{fill:#030104;}
</style>
<g id="Capa_1" focusable="false" class="st0">
	<path class="st1" d="M278.1,224L444.5,57.6c4.7-4.7,4.7-12.3,0-17c-32.8-32.8-86-32.8-118.8,0L210.2,156.1l-24.9-24.9
		c4.3-10.9,6.7-22.8,6.7-35.3c0-53-43-96-96-96S0,43,0,96s43,96,96,96c4.5,0,9-0.3,13.4-0.9l32.9,32.9l-32.9,32.9
		c-4.4-0.6-8.8-0.9-13.4-0.9c-53,0-96,43-96,96s43,96,96,96s96-43,96-96c0-12.5-2.4-24.3-6.7-35.3l24.9-24.9l115.5,115.5
		c32.8,32.8,86,32.8,118.8,0c4.7-4.7,4.7-12.3,0-17L278.1,224z M96,128c-17.6,0-32-14.4-32-32s14.4-32,32-32s32,14.4,32,32
		S113.6,128,96,128z M96,384c-17.6,0-32-14.4-32-32s14.4-32,32-32s32,14.4,32,32S113.6,384,96,384z"/>
</g>
<g id="Capa_2" class="st0">
	<path class="st1" d="M447,127.1l-59.8,251c-9.8,41-46.4,69.9-88.5,69.9H187.3c-30.3,0-59.5-11.6-81.5-32.3L11,326.5
		C-3,313.2-3.7,291.1,9.6,277c13.2-14,35.3-14.7,49.4-1.5l53,49.9l0,0c0-23.8-3.4-47.6-10.2-70.4L64.4,128.9
		c-5.5-18.5,5.1-38,23.6-43.5s38,5.1,43.5,23.6l32.5,109.7c1.1,3.9,5.2,6.1,9.1,4.9c3.8-1.1,6-5,5-8.8l-44-171.2
		c-4.8-18.7,6.5-37.8,25.2-42.6s37.8,6.5,42.6,25.2L251,217.1c1.3,4.9,6.2,7.8,11.1,6.6c3.4-0.9,6-3.6,6.7-7l33-160.7
		c3.9-19,22.5-31.1,41.4-27.2c1.2,0.2,2.3,0.5,3.5,0.9c17.4,5.5,27,24.2,23.3,42.1l-29.6,144.3c-0.7,3.6,1.6,7.1,5.1,7.8
		c3.5,0.7,6.9-1.5,7.8-4.9l25.7-108c4.5-18.8,23.3-30.4,42.1-25.9C439.9,89.4,451.5,108.3,447,127.1C447,127.1,447,127.1,447,127.1
		L447,127.1z"/>
</g>
<g id="Capa_3">
	<g>
		<path class="st2" d="M447.9,207.9c-1.4-16.3-8.3-33.9-18.1-51.8c-10.6-19.3-62.6-87.8-72.3-100.7c-14.6-19.2-24.1-34.1-21.5-41.4
			c3.9-10.8-39.2-6-86.2,2.2c-18.2,3.2-52.3-5.9-45.8,18.3c6.4,24.2-66.4,4.9-66.4,4.9S55.3,64.2,70.2,79.1
			C79.3,88.3-0.7,185.5,0,207.9c2,61.2,43.4,146.9,44.9,128.7c1.5-18.2,45,43.6,67.1,65.3c25.3,24.7,153,19.4,150.7,34.6
			c-2.3,15.1,90.5-13,73.2-34.6c-19.5-24.4,66.2-78.5,52.8-95.3S450.7,240.9,447.9,207.9z M78.5,276.8c-7.1,0-12.8-5.7-12.8-12.8
			c0-7.1,5.7-12.8,12.8-12.8c7.1,0,12.8,5.8,12.8,12.8C91.3,271.1,85.6,276.8,78.5,276.8z M182.1,253.2c-11.8,0-21.4-9.5-21.4-21.4
			c0-11.8,9.6-21.3,21.4-21.3s21.3,9.6,21.3,21.3C203.5,243.6,193.9,253.2,182.1,253.2z M155,167.3c-14.1,16.9-34.3,23.3-45,14.3
			c-10.8-9-8.1-30,6-46.9c14.1-16.9,34.3-23.3,45.1-14.3C171.8,129.4,169.1,150.4,155,167.3z M255.7,384.1
			c-20.8,0-37.6-16.8-37.6-37.6c0-20.7,16.8-37.6,37.6-37.6s37.6,16.9,37.6,37.6C293.3,367.3,276.5,384.1,255.7,384.1z M363.2,200
			c8.6,0,15.6,7,15.6,15.6c0,8.7-7,15.7-15.6,15.7s-15.7-7-15.7-15.7C347.5,207,354.5,200,363.2,200z M273,143.6
			c0-15.9,16.8-28.7,37.6-28.7c20.7,0,37.6,12.9,37.6,28.7s-16.9,28.7-37.6,28.7C289.8,172.3,273,159.5,273,143.6z"/>
	</g>
</g>
</svg>
