<?xml version="1.0" encoding="utf-8"?>
<!-- Generator: Adobe Illustrator 24.1.1, SVG Export Plug-In . SVG Version: 6.00 Build 0)  -->
<svg version="1.1" xmlns="http://www.w3.org/2000/svg" xmlns:xlink="http://www.w3.org/1999/xlink" x="0px" y="0px"
	 viewBox="0 0 509.2 496.8" style="enable-background:new 0 0 509.2 496.8;" xml:space="preserve">
<style type="text/css">
	.st0{display:none;}
	.st1{fill:none;stroke:#BF331D;stroke-width:3;stroke-miterlimit:10;}
	.st2{fill:#BF331D;}
	.st3{fill:#111;}
</style>
<g id="Capa_1" class="st0">
	
		<image style="display:inline;overflow:visible;" width="555" height="833" xlink:href="../00_Resources/352569d-emp.jpg"  transform="matrix(1 0 0 1 -27.4445 -62.0401)">
	</image>
</g>
<g id="Capa_2">
	<circle class="st1" cx="96.5" cy="214.9" r="86.7"/>
	<g>
		<g>
			<line class="st1" x1="205.7" y1="210.2" x2="322.7" y2="210.2"/>
			<g>
				<path class="st2" d="M191.2,210.2c6.8,2.5,15.3,6.8,20.5,11.4l-4.1-11.4l4.1-11.4C206.5,203.3,198,207.7,191.2,210.2z"/>
			</g>
		</g>
	</g>
	<g>
		<g>
			<line class="st1" x1="197.5" y1="302.9" x2="238.5" y2="193.4"/>
			<g>
				<path class="st2" d="M192.5,316.5c4.8-5.5,11.8-11.9,17.9-15.2l-12.1-0.1l-9.2-7.9C191.4,299.8,192.5,309.2,192.5,316.5z"/>
			</g>
		</g>
	</g>
	<g>
		<g>
			<line class="st1" x1="281.6" y1="192.4" x2="322.5" y2="301.9"/>
			<g>
				<path class="st2" d="M327.6,315.5c-4.8-5.5-11.8-11.9-17.9-15.2l12.1-0.1l9.2-7.9C328.7,298.8,327.6,308.2,327.6,315.5z"/>
			</g>
		</g>
	</g>
	<g>
		<g>
			<line class="st1" x1="279.6" y1="334.9" x2="186.2" y2="264.5"/>
			<g>
				<path class="st2" d="M291.1,343.6c-3.9-6.1-8.1-14.7-9.5-21.5l-3.6,11.6l-10.2,6.6C274.8,339.9,284.2,341.5,291.1,343.6z"/>
			</g>
		</g>
	</g>
	<g>
		<g>
			<line class="st1" x1="322.9" y1="269.2" x2="229.5" y2="339.6"/>
			<g>
				<path class="st2" d="M334.5,260.5c-7,2.1-16.3,3.7-23.3,3.2l10.2,6.6L325,282C326.4,275.2,330.5,266.6,334.5,260.5z"/>
			</g>
		</g>
	</g>
	<circle class="st1" cx="257.9" cy="96.3" r="86.7"/>
	<circle class="st1" cx="415.4" cy="214.9" r="86.7"/>
	<circle class="st1" cx="362.7" cy="403.2" r="86.7"/>
	<circle class="st1" cx="162" cy="403.2" r="86.7"/>
	<g>
		<g>
			<line class="st1" x1="265.1" y1="394.5" x2="276" y2="394.5"/>
			<g>
				<path class="st2" d="M250.6,394.5c6.8,2.5,15.3,6.8,20.5,11.4l-4.1-11.4l4.1-11.4C265.9,387.7,257.5,392,250.6,394.5z"/>
			</g>
		</g>
	</g>
	<g>
		<g>
			<line class="st1" x1="135.5" y1="310.7" x2="139.3" y2="320.9"/>
			<g>
				<path class="st2" d="M130.4,297.2c0,7.3-1.1,16.7-3.5,23.2l9.2-7.9l12.1-0.1C142.2,309.1,135.2,302.7,130.4,297.2z"/>
			</g>
		</g>
	</g>
	<g>
		<g>
			<line class="st1" x1="172.2" y1="157.3" x2="163.5" y2="163.9"/>
			<g>
				<path class="st2" d="M183.8,148.6c-7,2.1-16.3,3.7-23.3,3.2l10.2,6.6l3.6,11.6C175.7,163.2,179.8,154.7,183.8,148.6z"/>
			</g>
		</g>
	</g>
	<g>
		<g>
			<line class="st1" x1="336.4" y1="149.4" x2="327.7" y2="142.8"/>
			<g>
				<path class="st2" d="M348,158.1c-3.9-6.1-8.1-14.7-9.5-21.5l-3.6,11.6l-10.2,6.6C331.7,154.4,341,156,348,158.1z"/>
			</g>
		</g>
	</g>
	<g>
		<g>
			<line class="st1" x1="383" y1="308.9" x2="379.2" y2="319.1"/>
			<g>
				<path class="st2" d="M388.1,295.3c-4.8,5.5-11.8,11.9-17.9,15.2l12.1,0.1l9.2,7.9C389.2,312,388.1,302.6,388.1,295.3z"/>
			</g>
		</g>
	</g>
</g>
<g id="Capa_3">
	<path class="st3" d="M377.7,402l43.3-43.3c1.2-1.2,1.2-3.2,0-4.4c-8.5-8.5-22.4-8.5-30.9,0l-30,30l-6.5-6.5
		c1.1-2.8,1.7-5.9,1.7-9.2c0-13.8-11.2-25-25-25s-25,11.2-25,25c0,13.8,11.2,25,25,25c1.2,0,2.3-0.1,3.5-0.2l8.6,8.6l-8.6,8.6
		c-1.1-0.2-2.3-0.2-3.5-0.2c-13.8,0-25,11.2-25,25c0,13.8,11.2,25,25,25s25-11.2,25-25c0-3.2-0.6-6.3-1.7-9.2l6.5-6.5l30,30
		c8.5,8.5,22.4,8.5,30.9,0c1.2-1.2,1.2-3.2,0-4.4L377.7,402z M330.4,377c-4.6,0-8.3-3.7-8.3-8.3s3.7-8.3,8.3-8.3s8.3,3.7,8.3,8.3
		S334.9,377,330.4,377z M330.4,443.6c-4.6,0-8.3-3.7-8.3-8.3s3.7-8.3,8.3-8.3s8.3,3.7,8.3,8.3S334.9,443.6,330.4,443.6z"/>
	<path class="st3" d="M149.5,189.9L134,255.2c-2.5,10.7-12.1,18.2-23,18.2h-29c-7.9,0-15.5-3-21.2-8.4l-24.6-23.2
		c-3.7-3.5-3.8-9.2-0.4-12.9c3.4-3.6,9.2-3.8,12.8-0.4l13.8,13l0,0c0-6.2-0.9-12.4-2.7-18.3L50,190.3c-1.4-4.8,1.3-9.9,6.1-11.3
		s9.9,1.3,11.3,6.1l8.5,28.5c0.3,1,1.4,1.6,2.4,1.3c1-0.3,1.6-1.3,1.3-2.3l-11.4-44.5c-1.3-4.9,1.7-9.8,6.5-11.1
		c4.9-1.3,9.8,1.7,11.1,6.5l12.8,49.7c0.3,1.3,1.6,2,2.9,1.7c0.9-0.2,1.6-0.9,1.7-1.8l8.6-41.8c1-4.9,5.8-8.1,10.8-7.1
		c0.3,0.1,0.6,0.1,0.9,0.2c4.5,1.4,7,6.3,6.1,10.9l-7.7,37.5c-0.2,0.9,0.4,1.8,1.3,2c0.9,0.2,1.8-0.4,2-1.3l6.7-28.1
		c1.2-4.9,6.1-7.9,11-6.8S150.7,185,149.5,189.9C149.5,189.9,149.5,189.9,149.5,189.9L149.5,189.9z"/>
	<g>
		<path class="st3" d="M318,92c-0.4-4.2-2.2-8.8-4.7-13.5c-2.8-5-16.3-22.8-18.8-26.2c-3.8-5-6.3-8.9-5.6-10.8
			c1-2.8-10.2-1.6-22.4,0.6c-4.7,0.8-13.6-1.5-11.9,4.8c1.7,6.3-17.3,1.3-17.3,1.3s-21.4,6.5-17.5,10.3c2.4,2.4-18.4,27.7-18.3,33.5
			c0.5,15.9,11.3,38.2,11.7,33.5s11.7,11.4,17.5,17c6.6,6.4,39.8,5.1,39.2,9c-0.6,3.9,23.5-3.4,19.1-9c-5.1-6.3,17.2-20.4,13.7-24.8
			S318.7,100.6,318,92z M221.9,109.9c-1.8,0-3.3-1.5-3.3-3.3c0-1.8,1.5-3.3,3.3-3.3c1.8,0,3.3,1.5,3.3,3.3
			C225.2,108.5,223.7,109.9,221.9,109.9z M248.9,103.8c-3.1,0-5.6-2.5-5.6-5.6c0-3.1,2.5-5.5,5.6-5.5s5.5,2.5,5.5,5.5
			C254.4,101.3,251.9,103.8,248.9,103.8z M241.8,81.5c-3.7,4.4-8.9,6.1-11.7,3.7c-2.8-2.3-2.1-7.8,1.6-12.2
			c3.7-4.4,8.9-6.1,11.7-3.7C246.2,71.6,245.5,77.1,241.8,81.5z M268,137.9c-5.4,0-9.8-4.4-9.8-9.8c0-5.4,4.4-9.8,9.8-9.8
			s9.8,4.4,9.8,9.8C277.8,133.5,273.4,137.9,268,137.9z M295.9,89.9c2.2,0,4.1,1.8,4.1,4.1c0,2.3-1.8,4.1-4.1,4.1s-4.1-1.8-4.1-4.1
			C291.9,91.8,293.7,89.9,295.9,89.9z M272.5,75.3c0-4.1,4.4-7.5,9.8-7.5c5.4,0,9.8,3.3,9.8,7.5s-4.4,7.5-9.8,7.5
			C276.9,82.8,272.5,79.4,272.5,75.3z"/>
	</g>
	<g>
		<path class="st3" d="M384.6,179.8c-2.6,0-5,1.8-6.7,5.2c-1.5,3-2.3,6.9-2.3,11s0.8,8.1,2.3,11c1.7,3.4,4,5.2,6.7,5.2
			s5-1.8,6.7-5.2c1.5-3,2.3-6.9,2.3-11s-0.8-8.1-2.3-11C389.6,181.7,387.2,179.8,384.6,179.8z M388.2,205.6
			c-1.1,2.1-2.4,3.3-3.6,3.3c-1.2,0-2.6-1.2-3.6-3.3c-1.3-2.5-1.9-5.9-1.9-9.5c0-3.6,0.7-7,1.9-9.5c1.1-2.1,2.4-3.3,3.6-3.3
			c1.2,0,2.6,1.2,3.6,3.3c1.3,2.5,1.9,5.9,1.9,9.5C390.2,199.7,389.5,203.1,388.2,205.6z"/>
		<path class="st3" d="M462.6,193.9c-0.3-9.2-2.4-17.8-6-24.4c-4.1-7.4-9.6-11.5-15.6-11.5h-56.4c-6,0-11.5,4.1-15.6,11.5
			c-3.9,7.1-6.1,16.5-6.1,26.5c0,10,2.2,19.4,6.1,26.5c4.1,7.4,9.6,11.5,15.6,11.5c0.4,0,0.9,0,1.3-0.1c0.2,0,0.3,0.1,0.5,0.1h10.9
			c0.9,0,1.7-0.8,1.7-1.7s-0.8-1.7-1.7-1.7h-3.6c2.4-1.9,4.6-4.7,6.5-8.1c1-1.8,1.9-3.8,2.7-5.9v55.7c0,0.6,0.3,1.2,0.9,1.5
			c0.5,0.3,1.2,0.3,1.7-0.1l4.7-3l4.7,3c0.6,0.4,1.3,0.4,1.8,0l4.7-3l4.7,3c0.3,0.2,0.6,0.3,0.9,0.3c0.3,0,0.6-0.1,0.9-0.3l4.7-3
			l4.7,3c0.6,0.4,1.3,0.4,1.8,0l4.7-3l4.7,3c0.6,0.4,1.3,0.4,1.8,0l4.7-3l4.7,3c0.5,0.3,1.2,0.4,1.7,0.1c0.5-0.3,0.9-0.9,0.9-1.5
			v-78.2C462.7,194.2,462.7,194,462.6,193.9z M397.3,221c-3.5,6.3-8,9.8-12.6,9.8c-4.7,0-9.2-3.5-12.6-9.8
			c-3.6-6.6-5.6-15.5-5.6-24.9c0-9.4,2-18.3,5.6-24.9c3.5-6.3,8-9.8,12.6-9.8c4.7,0,9.2,3.5,12.6,9.8c3.6,6.6,5.6,15.5,5.6,24.9
			S400.9,214.4,397.3,221z M456.3,267.4c-0.6-0.4-1.3-0.4-1.8,0l-4.7,3l-4.7-3c-0.6-0.4-1.3-0.4-1.8,0l-4.7,3l-4.7-3
			c-0.6-0.4-1.3-0.4-1.8,0l-4.7,3l-4.7-3c-0.6-0.4-1.3-0.4-1.8,0l-4.7,3l-4.7-3c-0.6-0.4-1.3-0.4-1.8,0l-3,1.9v-49.7h1.9
			c0.9,0,1.7-0.8,1.7-1.7c0-0.9-0.8-1.7-1.7-1.7h-1.9v-21.9c0-0.1,0-0.2,0-0.3c-0.3-9.2-2.4-17.8-6-24.4c-1.9-3.5-4.1-6.2-6.5-8.1
			H441c4.7,0,9.2,3.5,12.6,9.8c3.6,6.6,5.6,15.5,5.6,24.9v20.1h-0.1c-0.9,0-1.7,0.8-1.7,1.7c0,0.9,0.8,1.7,1.7,1.7h0.1v49.7
			L456.3,267.4z"/>
		<path class="st3" d="M419.2,216.2h-3.6c-0.9,0-1.7,0.8-1.7,1.7c0,0.9,0.8,1.7,1.7,1.7h3.6c0.9,0,1.7-0.8,1.7-1.7
			C420.9,217,420.1,216.2,419.2,216.2z"/>
		<path class="st3" d="M430.1,216.2h-3.6c-0.9,0-1.7,0.8-1.7,1.7c0,0.9,0.8,1.7,1.7,1.7h3.6c0.9,0,1.7-0.8,1.7-1.7
			C431.8,217,431,216.2,430.1,216.2z"/>
		<path class="st3" d="M441,216.2h-3.6c-0.9,0-1.7,0.8-1.7,1.7c0,0.9,0.8,1.7,1.7,1.7h3.6c0.9,0,1.7-0.8,1.7-1.7
			C442.7,217,441.9,216.2,441,216.2z"/>
		<path class="st3" d="M451.9,216.2h-3.6c-0.9,0-1.7,0.8-1.7,1.7c0,0.9,0.8,1.7,1.7,1.7h3.6c0.9,0,1.7-0.8,1.7-1.7
			C453.6,217,452.8,216.2,451.9,216.2z"/>
	</g>
	<g>
		<g>
			<circle class="st3" cx="129" cy="376.6" r="3"/>
			<path class="st3" d="M181.2,366.2c-14.7-3.7-26.5-2.8-42.1,6.5c-0.4-3.4-9.3-13.6-20.2-6.4c-11.6-1.4-11.6,10.6-11.6,10.6
				s-6.4,11.2-6.4,15.4c-0.1,2.8,1.6,3.6,3.3,4.1c8.4-4.8,16.1-3.7,22.3-2.7c3.2,0.5,6,0.9,8.1,0.3c0.7-0.2,1.5,0.2,1.7,1
				c0.2,0.7-0.2,1.5-0.9,1.7c-2.7,0.7-5.7,0.3-9.3-0.2c-5.6-0.8-12.3-1.8-19.6,2c6.9,12.1,26.1,16.1,40,6.5c3,0.2,7,0.6,11.3,1
				c0.8,0.1,0,2.6-0.8,5.1c-0.3,0.9-10.5,3-10.7,3.8c-0.4,1.4,9.3,0.3,10,1.3c0.7,1-1.3,5.6-0.4,7.7c0.6,1.4,5.5,0,6.8-3.4
				c0.7-1.7-2.2-5-1.5-6.3c1.9-4,3.6-7.6,3.9-7.6c2,0.1,4,0.1,5.9,0c4-0.2,7.9-0.6,11.5-0.9c0.5,0,1.2,1.6,2,3.4
				c0.4,0.9-6.7,2.2-6.4,3c0.7,1.7,7,0.6,9.3,2.7c2.3,2.2,2.4,7.9,4.1,8.6c0.9,0.4,4.9-2.5,4.1-6.1c-1.2-5.3-7.5-12.1-7.2-12.1
				c4.4-0.2,8.1,0,10.6,1.3c9.3,4.8,2.5,40.7-20.8,42.5c-12.7,1-16.9-9.2-15.4-14.8c1.6-5.6,8.5-8.6,13.4-7.9
				c4.8,0.7,5.7,5.2,3.6,8.2c-0.3,0.4-0.6,0.8-1,1.1c-0.8-0.8-2-1.4-3.3-1.4c-2.5,0-4.6,2.1-4.6,4.6c0,2.5,2,4.6,4.6,4.6
				c2.3,0,4.2-1.7,4.5-3.9c1.2-0.3,2.4-0.9,3.5-2c4.1-4.3,3.2-12-4.6-14.7c-8.7-3-21,2.5-21.3,11.9c-0.4,9.3,8.2,20.2,22.9,19.4
				c21.9-1.3,37.6-24,36.7-44.9C216.5,391.2,207,372.7,181.2,366.2z M126.2,386.4c-4.9,0-8.9-4-8.9-8.9c0-4.9,4-8.9,8.9-8.9
				c4.9,0,8.9,4,8.9,8.9C135.1,382.4,131.1,386.4,126.2,386.4z"/>
		</g>
	</g>
</g>
</svg>
