<?xml version="1.0" encoding="utf-8"?>
<!-- Generator: Adobe Illustrator 24.1.1, SVG Export Plug-In . SVG Version: 6.00 Build 0)  -->
<svg version="1.1" xmlns="http://www.w3.org/2000/svg" xmlns:xlink="http://www.w3.org/1999/xlink" x="0px" y="0px"
	 viewBox="0 0 448 448" style="enable-background:new 0 0 448 448;" xml:space="preserve">
<style type="text/css">
	.st0{display:none;}
	.st1{display:inline;}
	.st2{fill:#030104;}
</style>
<g id="Capa_1" focusable="false">
	<path d="M278.1,224L444.5,57.6c4.7-4.7,4.7-12.3,0-17c-32.8-32.8-86-32.8-118.8,0L210.2,156.1l-24.9-24.9
		c4.3-10.9,6.7-22.8,6.7-35.3c0-53-43-96-96-96S0,43,0,96s43,96,96,96c4.5,0,9-0.3,13.4-0.9l32.9,32.9l-32.9,32.9
		c-4.4-0.6-8.8-0.9-13.4-0.9c-53,0-96,43-96,96s43,96,96,96s96-43,96-96c0-12.5-2.4-24.3-6.7-35.3l24.9-24.9l115.5,115.5
		c32.8,32.8,86,32.8,118.8,0c4.7-4.7,4.7-12.3,0-17L278.1,224z M96,128c-17.6,0-32-14.4-32-32s14.4-32,32-32s32,14.4,32,32
		S113.6,128,96,128z M96,384c-17.6,0-32-14.4-32-32s14.4-32,32-32s32,14.4,32,32S113.6,384,96,384z"/>
</g>
<g id="Capa_2" class="st0">
	<path class="st1" d="M447,127.1l-59.8,251c-9.8,41-46.4,69.9-88.5,69.9H187.3c-30.3,0-59.5-11.6-81.5-32.3L11,326.5
		C-3,313.2-3.7,291.1,9.6,277c13.2-14,35.3-14.7,49.4-1.5l53,49.9l0,0c0-23.8-3.4-47.6-10.2-70.4L64.4,128.9
		c-5.5-18.5,5.1-38,23.6-43.5s38,5.1,43.5,23.6l32.5,109.7c1.1,3.9,5.2,6.1,9.1,4.9c3.8-1.1,6-5,5-8.8l-44-171.2
		c-4.8-18.7,6.5-37.8,25.2-42.6s37.8,6.5,42.6,25.2L251,217.1c1.3,4.9,6.2,7.8,11.1,6.6c3.4-0.9,6-3.6,6.7-7l33-160.7
		c3.9-19,22.5-31.1,41.4-27.2c1.2,0.2,2.3,0.5,3.5,0.9c17.4,5.5,27,24.2,23.3,42.1l-29.6,144.3c-0.7,3.6,1.6,7.1,5.1,7.8
		c3.5,0.7,6.9-1.5,7.8-4.9l25.7-108c4.5-18.8,23.3-30.4,42.1-25.9C439.9,89.4,451.5,108.3,447,127.1C447,127.1,447,127.1,447,127.1
		L447,127.1z"/>
</g>
<g id="Capa_3" class="st0">
	<g class="st1">
		<path class="st2" d="M447.9,207.9c-1.4-16.3-8.3-33.9-18.1-51.8c-10.6-19.3-62.6-87.8-72.3-100.7c-14.6-19.2-24.1-34.1-21.5-41.4
			c3.9-10.8-39.2-6-86.2,2.2c-18.2,3.2-52.3-5.9-45.8,18.3c6.4,24.2-66.4,4.9-66.4,4.9S55.3,64.2,70.2,79.1
			C79.3,88.3-0.7,185.5,0,207.9c2,61.2,43.4,146.9,44.9,128.7c1.5-18.2,45,43.6,67.1,65.3c25.3,24.7,153,19.4,150.7,34.6
			c-2.3,15.1,90.5-13,73.2-34.6c-19.5-24.4,66.2-78.5,52.8-95.3S450.7,240.9,447.9,207.9z M78.5,276.8c-7.1,0-12.8-5.7-12.8-12.8
			c0-7.1,5.7-12.8,12.8-12.8c7.1,0,12.8,5.8,12.8,12.8C91.3,271.1,85.6,276.8,78.5,276.8z M182.1,253.2c-11.8,0-21.4-9.5-21.4-21.4
			c0-11.8,9.6-21.3,21.4-21.3s21.3,9.6,21.3,21.3C203.5,243.6,193.9,253.2,182.1,253.2z M155,167.3c-14.1,16.9-34.3,23.3-45,14.3
			c-10.8-9-8.1-30,6-46.9c14.1-16.9,34.3-23.3,45.1-14.3C171.8,129.4,169.1,150.4,155,167.3z M255.7,384.1
			c-20.8,0-37.6-16.8-37.6-37.6c0-20.7,16.8-37.6,37.6-37.6s37.6,16.9,37.6,37.6C293.3,367.3,276.5,384.1,255.7,384.1z M363.2,200
			c8.6,0,15.6,7,15.6,15.6c0,8.7-7,15.7-15.6,15.7s-15.7-7-15.7-15.7C347.5,207,354.5,200,363.2,200z M273,143.6
			c0-15.9,16.8-28.7,37.6-28.7c20.7,0,37.6,12.9,37.6,28.7s-16.9,28.7-37.6,28.7C289.8,172.3,273,159.5,273,143.6z"/>
	</g>
</g>
<g id="Capa_4" class="st0">
	<g class="st1">
		<path d="M119.4,83.9c-10.1,0-19.2,7.1-25.6,20c-5.7,11.5-8.9,26.5-8.9,42.5s3.2,31,8.9,42.5c6.4,12.9,15.5,20,25.6,20
			s19.2-7.1,25.6-20c5.7-11.5,8.9-26.5,8.9-42.5s-3.2-31-8.9-42.5C138.6,91,129.5,83.9,119.4,83.9z M133.3,182.9
			c-4.1,8.1-9.1,12.8-13.9,12.8s-9.9-4.6-13.9-12.8c-4.8-9.7-7.5-22.7-7.5-36.6c0-13.9,2.7-26.9,7.5-36.6
			c4.1-8.1,9.1-12.8,13.9-12.8s9.9,4.6,13.9,12.8c4.8,9.7,7.5,22.7,7.5,36.6C140.8,160.3,138.2,173.3,133.3,182.9z"/>
		<path d="M419.4,138c-1.1-35.3-9.2-68.3-23.2-93.7C380.5,15.7,359.1,0,336.1,0H119.4c-23,0-44.4,15.7-60.1,44.3
			c-15,27.4-23.3,63.6-23.3,102s8.3,74.6,23.3,102c15.7,28.6,37.1,44.3,60.1,44.3c1.7,0,3.4-0.1,5.1-0.3c0.6,0.2,1.2,0.3,1.9,0.3
			h41.9c3.6,0,6.6-2.9,6.6-6.6c0-3.6-2.9-6.6-6.6-6.6h-14c9.3-7.4,17.9-17.9,25.2-31.2c3.9-7,7.3-14.6,10.2-22.7v214.3
			c0,2.4,1.3,4.6,3.4,5.8c2.1,1.1,4.7,1.1,6.7-0.2l18.1-11.7l18.1,11.7c2.2,1.4,4.9,1.4,7.1,0l18.1-11.7l18.1,11.7
			c1.1,0.7,2.3,1,3.6,1c1.2,0,2.5-0.3,3.6-1l18.1-11.7l18.1,11.7c2.2,1.4,4.9,1.4,7.1,0l18.1-11.7l18.1,11.7c2.2,1.4,4.9,1.4,7.1,0
			l18.2-11.7l18.2,11.7c2,1.3,4.6,1.4,6.7,0.2c2.1-1.1,3.4-3.4,3.4-5.8V139.3C419.5,138.9,419.5,138.5,419.4,138z M168,242
			c-13.3,24.2-30.6,37.5-48.6,37.5S84.1,266.2,70.8,242c-14-25.4-21.7-59.4-21.7-95.7s7.7-70.2,21.7-95.7
			c13.3-24.2,30.6-37.5,48.6-37.5s35.3,13.3,48.6,37.5c14,25.4,21.7,59.4,21.7,95.7S182,216.6,168,242z M394.8,420.4
			c-2.2-1.4-4.9-1.4-7.1,0l-18.2,11.7l-18.1-11.7c-2.2-1.4-4.9-1.4-7.1,0L326.2,432l-18.1-11.7c-2.2-1.4-4.9-1.4-7.1,0L282.9,432
			l-18.1-11.7c-2.2-1.4-4.9-1.4-7.1,0L239.6,432l-18.1-11.7c-2.2-1.4-4.9-1.4-7.1,0l-11.5,7.5V236.7h7.4c3.6,0,6.6-2.9,6.6-6.6
			c0-3.6-2.9-6.6-6.6-6.6h-7.4v-84.3c0-0.5,0-0.9-0.1-1.3c-1.1-35.3-9.2-68.3-23.2-93.7c-7.3-13.3-15.8-23.8-25.2-31.2h181.7
			c18,0,35.3,13.3,48.6,37.5c14,25.4,21.7,59.4,21.7,95.7v77.3H406c-3.6,0-6.6,2.9-6.6,6.6c0,3.6,2.9,6.6,6.6,6.6h0.4v191.1
			L394.8,420.4z"/>
		<path d="M252.2,223.6h-14c-3.6,0-6.6,2.9-6.6,6.6c0,3.6,2.9,6.6,6.6,6.6h14c3.6,0,6.6-2.9,6.6-6.6
			C258.8,226.6,255.8,223.6,252.2,223.6z"/>
		<path d="M294.1,223.6h-14c-3.6,0-6.6,2.9-6.6,6.6c0,3.6,2.9,6.6,6.6,6.6h14c3.6,0,6.6-2.9,6.6-6.6
			C300.7,226.6,297.8,223.6,294.1,223.6z"/>
		<path d="M336.1,223.6h-14c-3.6,0-6.6,2.9-6.6,6.6c0,3.6,2.9,6.6,6.6,6.6h14c3.6,0,6.6-2.9,6.6-6.6
			C342.6,226.6,339.7,223.6,336.1,223.6z"/>
		<path d="M378,223.6h-14c-3.6,0-6.6,2.9-6.6,6.6c0,3.6,2.9,6.6,6.6,6.6h14c3.6,0,6.6-2.9,6.6-6.6
			C384.6,226.6,381.6,223.6,378,223.6z"/>
	</g>
</g>
<g id="Capa_5" class="st0">
	<g class="st1">
		<g>
			<circle cx="108.7" cy="111.9" r="11.7"/>
			<path d="M309.3,71.9C252.6,57.5,207.4,61.1,147.4,97c-1.4-13.1-35.8-52.4-77.8-24.8c-44.8-5.5-44.8,40.6-44.8,40.6
				S0.3,155.8,0,172.1c-0.2,10.8,6.3,13.8,12.6,15.6c32.4-18.4,61.7-14,85.6-10.5c12.4,1.9,23.2,3.4,31.3,1.2
				c2.8-0.8,5.7,0.8,6.5,3.7c0.8,2.8-0.8,5.7-3.6,6.5c-10.3,2.9-22,1.1-35.7-0.9c-21.4-3.2-47.4-6.9-75.4,7.6
				c26.6,46.3,100.3,62.1,153.8,25.1c11.7,0.7,27,2.5,43.5,3.8c3,0.2,0.1,9.9-2.9,19.5c-1,3.3-40.5,11.6-41.3,14.5
				c-1.4,5.5,35.9,1,38.6,4.8c2.6,3.8-4.8,21.4-1.4,29.7c2.3,5.5,21-0.2,26.2-13.1c2.6-6.5-8.4-19.2-5.9-24.4
				c7.4-15.3,13.8-29.4,14.9-29.3c7.7,0.2,15.3,0.3,22.7-0.1c15.5-0.7,30.4-2.2,44.2-3.4c1.8-0.2,4.7,6,7.8,13.2
				c1.4,3.3-25.9,8.3-24.5,11.5c2.9,6.6,26.9,2.2,35.8,10.4c9,8.3,9.2,30.5,15.8,33.1c3.6,1.4,18.9-9.5,15.8-23.4
				c-4.4-20.2-28.8-46.4-27.6-46.4c16.9-0.8,31,0,40.6,5c35.8,18.5,9.7,156.4-79.9,163.3c-48.8,3.8-65.1-35.3-59-57
				c6-21.5,32.8-33.2,51.5-30.4c18.6,2.7,22,20,13.8,31.6c-1.1,1.5-2.4,3-3.7,4.3c-3.2-3.2-7.6-5.3-12.5-5.3
				c-9.7,0-17.6,7.9-17.6,17.6c0,9.7,7.9,17.6,17.6,17.6c8.8,0,16-6.4,17.3-14.9c4.7-1.2,9.4-3.5,13.4-7.6
				c15.8-16.5,12.4-46.2-17.6-56.3c-33.6-11.4-80.6,9.7-82,45.6c-1.4,35.8,31.5,77.8,88.1,74.6c84-4.8,144.5-92.1,141.1-172.6
				C444.9,167.9,408.5,97,309.3,71.9z M98,149.3c-18.8,0-34.1-15.3-34.1-34.1S79.2,81.1,98,81.1c18.8,0,34.1,15.3,34.1,34.1
				C132.1,134.1,116.9,149.3,98,149.3z"/>
		</g>
	</g>
</g>
</svg>
