<?xml version="1.0" encoding="utf-8"?>
<!-- Generator: Adobe Illustrator 24.1.1, SVG Export Plug-In . SVG Version: 6.00 Build 0)  -->
<svg version="1.1" xmlns="http://www.w3.org/2000/svg" xmlns:xlink="http://www.w3.org/1999/xlink" x="0px" y="0px"
	 viewBox="0 0 448 448" style="enable-background:new 0 0 448 448;" xml:space="preserve">
<style type="text/css">
	.st0{display:none;}
	.st1{display:inline;}
</style>
<g id="Capa_1" focusable="false" class="st0">
	<path class="st1" d="M278.1,224L444.5,57.6c4.7-4.7,4.7-12.3,0-17c-32.8-32.8-86-32.8-118.8,0L210.2,156.1l-24.9-24.9
		c4.3-10.9,6.7-22.8,6.7-35.3c0-53-43-96-96-96S0,43,0,96s43,96,96,96c4.5,0,9-0.3,13.4-0.9l32.9,32.9l-32.9,32.9
		c-4.4-0.6-8.8-0.9-13.4-0.9c-53,0-96,43-96,96s43,96,96,96s96-43,96-96c0-12.5-2.4-24.3-6.7-35.3l24.9-24.9l115.5,115.5
		c32.8,32.8,86,32.8,118.8,0c4.7-4.7,4.7-12.3,0-17L278.1,224z M96,128c-17.6,0-32-14.4-32-32s14.4-32,32-32s32,14.4,32,32
		S113.6,128,96,128z M96,384c-17.6,0-32-14.4-32-32s14.4-32,32-32s32,14.4,32,32S113.6,384,96,384z"/>
</g>
<g id="Capa_2">
	<path d="M447,127.1l-59.8,251c-9.8,41-46.4,69.9-88.5,69.9H187.3c-30.3,0-59.5-11.6-81.5-32.3L11,326.5C-3,313.2-3.7,291.1,9.6,277
		c13.2-14,35.3-14.7,49.4-1.5l53,49.9l0,0c0-23.8-3.4-47.6-10.2-70.4L64.4,128.9c-5.5-18.5,5.1-38,23.6-43.5s38,5.1,43.5,23.6
		l32.5,109.7c1.1,3.9,5.2,6.1,9.1,4.9c3.8-1.1,6-5,5-8.8l-44-171.2c-4.8-18.7,6.5-37.8,25.2-42.6s37.8,6.5,42.6,25.2L251,217.1
		c1.3,4.9,6.2,7.8,11.1,6.6c3.4-0.9,6-3.6,6.7-7l33-160.7c3.9-19,22.5-31.1,41.4-27.2c1.2,0.2,2.3,0.5,3.5,0.9
		c17.4,5.5,27,24.2,23.3,42.1l-29.6,144.3c-0.7,3.6,1.6,7.1,5.1,7.8c3.5,0.7,6.9-1.5,7.8-4.9l25.7-108c4.5-18.8,23.3-30.4,42.1-25.9
		C439.9,89.4,451.5,108.3,447,127.1C447,127.1,447,127.1,447,127.1L447,127.1z"/>
</g>
</svg>
